<svg xmlns="http://www.w3.org/2000/svg" viewBox="0 0 740 300"><rect width="740" height="300" fill="#fff"/><g stroke="#dbe4e8"><path d="M48 35h650M48 85h650M48 135h650M48 185h650M48 235h650M48 35v200M156 35v200M264 35v200M372 35v200M480 35v200M588 35v200M698 35v200"/></g><path d="M48 193 90 188 132 194 174 183 216 187 258 125 300 181 342 176 384 184 426 143 468 180 510 171 552 188 594 179 636 183 698 175" fill="none" stroke="#119ec3" stroke-width="3"/><path d="M48 210 90 212 132 205 174 214 216 207 258 203 300 211 342 201 384 209 426 205 468 213 510 204 552 211 594 206 636 214 698 207" fill="none" stroke="#ec88a5" stroke-width="2"/><g font-family="Arial" font-size="12" fill="#607079"><text x="22" y="39">100</text><text x="29" y="89">75</text><text x="29" y="139">50</text><text x="29" y="189">25</text><text x="36" y="239">0</text><text x="42" y="257">18:00</text><text x="345" y="257">20:30</text><text x="665" y="257">23:00</text></g><g transform="translate(48 272)"><rect width="210" height="10" fill="#17a8c9"/><rect x="235" width="145" height="10" fill="#74c7da"/><rect x="405" width="90" height="10" fill="#ec9b43"/></g></svg>
